ply
format ascii 1.0
comment Created by Blender 2.79 (sub 0) - www.blender.org, source file: 'Bottle tight.blend'
element vertex 608
property float x
property float y
property float z
property float nx
property float ny
property float nz
element face 666
property list uchar uint vertex_indices
end_header
0.000285 0.491292 -1.546768 0.000000 0.987610 -0.156865
0.000285 0.491292 -0.147040 0.000000 0.985687 0.168432
0.096131 0.481852 -0.147040 0.192297 0.966765 0.168432
0.096131 0.481852 -1.546768 0.192663 0.968627 -0.156865
0.188294 0.453895 -0.147040 0.377209 0.910672 0.168432
0.188294 0.453895 -1.546768 0.377941 0.912412 -0.156865
0.273232 0.408494 -0.147040 0.547624 0.819575 0.168432
0.273232 0.408494 -1.546768 0.548662 0.821162 -0.156865
0.347680 0.347396 -0.147040 0.696982 0.696982 0.168432
0.347680 0.347396 -1.546768 0.698325 0.698325 -0.156865
0.408779 0.272947 -0.147040 0.819575 0.547624 0.168432
0.408779 0.272947 -1.546768 0.821162 0.548662 -0.156865
0.454179 0.188009 -0.147040 0.910672 0.377209 0.168432
0.454179 0.188009 -1.546768 0.912412 0.377941 -0.156865
0.482136 0.095846 -0.147040 0.966765 0.192297 0.168432
0.482136 0.095846 -1.546768 0.968627 0.192663 -0.156865
0.491576 -0.000000 -0.147040 0.985687 0.000000 0.168432
0.491576 -0.000000 -1.546768 0.987610 0.000000 -0.156865
0.482136 -0.095846 -0.147040 0.966765 -0.192297 0.168432
0.482136 -0.095846 -1.546768 0.968627 -0.192663 -0.156865
0.454179 -0.188009 -0.147040 0.910672 -0.377209 0.168432
0.454179 -0.188009 -1.546768 0.912412 -0.377941 -0.156865
0.408779 -0.272947 -0.147040 0.819575 -0.547624 0.168432
0.408779 -0.272947 -1.546768 0.821162 -0.548662 -0.156865
0.347680 -0.347396 -0.147040 0.696982 -0.696982 0.168432
0.347680 -0.347396 -1.546768 0.698325 -0.698325 -0.156865
0.273232 -0.408494 -0.147040 0.547624 -0.819575 0.168432
0.273232 -0.408494 -1.546768 0.548662 -0.821162 -0.156865
0.188294 -0.453895 -0.147040 0.377209 -0.910672 0.168432
0.188294 -0.453895 -1.546768 0.377941 -0.912412 -0.156865
0.096131 -0.481852 -0.147040 0.192297 -0.966765 0.168432
0.096131 -0.481852 -1.546768 0.192663 -0.968627 -0.156865
0.000284 -0.491292 -0.147040 0.000000 -0.985687 0.168432
0.000284 -0.491292 -1.546768 0.000000 -0.987610 -0.156865
-0.095562 -0.481852 -0.147040 -0.192297 -0.966765 0.168432
-0.095562 -0.481852 -1.546768 -0.192663 -0.968627 -0.156865
-0.187725 -0.453895 -0.147040 -0.377209 -0.910672 0.168432
-0.187725 -0.453895 -1.546768 -0.377941 -0.912412 -0.156865
-0.272663 -0.408494 -0.147040 -0.547624 -0.819575 0.168432
-0.272663 -0.408494 -1.546768 -0.548662 -0.821162 -0.156865
-0.347112 -0.347396 -0.147040 -0.696982 -0.696982 0.168432
-0.347112 -0.347396 -1.546768 -0.698325 -0.698325 -0.156865
-0.408210 -0.272947 -0.147040 -0.819575 -0.547624 0.168432
-0.408210 -0.272947 -1.546768 -0.821162 -0.548662 -0.156865
-0.453610 -0.188009 -0.147040 -0.910672 -0.377209 0.168432
-0.453610 -0.188009 -1.546768 -0.912412 -0.377941 -0.156865
-0.481568 -0.095846 -0.147040 -0.966765 -0.192297 0.168432
-0.481568 -0.095846 -1.546768 -0.968627 -0.192663 -0.156865
-0.491007 0.000000 -0.147040 -0.985687 0.000000 0.168432
-0.491007 0.000000 -1.546768 -0.987610 0.000000 -0.156865
-0.481567 0.095847 -0.147040 -0.966765 0.192297 0.168432
-0.481567 0.095847 -1.546768 -0.968627 0.192663 -0.156865
-0.453610 0.188010 -0.147040 -0.910672 0.377209 0.168432
-0.453610 0.188010 -1.546768 -0.912412 0.377941 -0.156865
-0.408210 0.272948 -0.147040 -0.819575 0.547624 0.168432
-0.408210 0.272948 -1.546768 -0.821162 0.548662 -0.156865
-0.347111 0.347396 -0.147040 -0.696982 0.696982 0.168432
-0.347111 0.347396 -1.546768 -0.698325 0.698325 -0.156865
-0.272662 0.408495 -0.147040 -0.547624 0.819575 0.168432
-0.272662 0.408495 -1.546768 -0.548662 0.821162 -0.156865
-0.187724 0.453895 -0.147040 -0.377209 0.910672 0.168432
-0.187724 0.453895 -1.546768 -0.377941 0.912412 -0.156865
0.379429 -0.253336 -0.047898 0.760430 -0.508103 0.404401
0.322720 -0.322436 -0.047898 0.646687 -0.646687 0.404401
-0.095561 0.481852 -0.147040 -0.192297 0.966765 0.168432
-0.095561 0.481852 -1.546768 -0.192663 0.968627 -0.156865
0.479008 -0.000000 -1.584928 0.830531 0.000000 -0.556932
0.469809 0.093394 -1.584928 0.814570 0.162023 -0.556932
0.442567 0.183199 -1.584928 0.767296 0.317820 -0.556932
0.410921 0.081681 -1.634311 0.348949 0.069399 -0.934538
0.387095 0.160222 -1.634311 0.328715 0.136143 -0.934538
-0.093110 -0.469525 -1.584928 -0.162023 -0.814570 -0.556932
0.000284 -0.478723 -1.584928 0.000000 -0.830531 -0.556932
-0.441998 0.183200 -1.584928 -0.767296 0.317820 -0.556932
-0.469240 0.093395 -1.584928 -0.814570 0.162023 -0.556932
0.338793 0.338508 -1.584928 0.587268 0.587268 -0.556932
0.266249 0.398044 -1.584928 0.461409 0.690542 -0.556932
0.266249 -0.398044 -1.584928 0.461409 -0.690542 -0.556932
0.338793 -0.338509 -1.584928 0.587268 -0.587268 -0.556932
-0.441998 -0.183199 -1.584928 -0.767296 -0.317820 -0.556932
-0.397760 -0.265964 -1.584928 -0.690542 -0.461409 -0.556932
-0.093109 0.469525 -1.584928 -0.162023 0.814570 -0.556932
-0.182914 0.442283 -1.584928 -0.317820 0.767296 -0.556932
0.469809 -0.093394 -1.584928 0.814570 -0.162023 -0.556932
-0.182915 -0.442283 -1.584928 -0.317820 -0.767296 -0.556932
-0.397759 0.265965 -1.584928 -0.690542 0.461409 -0.556932
0.398329 0.265964 -1.584928 0.690542 0.461409 -0.556932
0.183484 -0.442283 -1.584928 0.317820 -0.767296 -0.556932
-0.469240 -0.093394 -1.584928 -0.814570 -0.162023 -0.556932
0.093679 0.469525 -1.584928 0.162023 0.814570 -0.556932
0.000285 0.478723 -1.584928 0.000000 0.830531 -0.556932
0.442567 -0.183200 -1.584928 0.767296 -0.317820 -0.556932
-0.265680 -0.398044 -1.584928 -0.461409 -0.690542 -0.556932
-0.338224 0.338509 -1.584928 -0.587268 0.587268 -0.556932
0.093679 -0.469525 -1.584928 0.162023 -0.814570 -0.556932
-0.478439 0.000000 -1.584928 -0.830531 0.000000 -0.556932
0.183484 0.442283 -1.584928 0.317820 0.767296 -0.556932
0.398329 -0.265965 -1.584928 0.690542 -0.461409 -0.556932
-0.338224 -0.338508 -1.584928 -0.587268 -0.587268 -0.556932
-0.265679 0.398044 -1.584928 -0.461409 0.690542 -0.556932
-0.081396 0.410636 -1.634311 -0.069399 0.348949 -0.934538
0.000285 0.418681 -1.634311 0.000000 0.355785 -0.934538
0.081965 0.410636 -1.634311 0.069399 0.348949 -0.934538
0.160507 0.386811 -1.634311 0.136143 0.328715 -0.934538
0.232891 0.348121 -1.634311 0.197668 0.295846 -0.934538
0.296337 0.296052 -1.634311 0.251595 0.251595 -0.934538
0.348405 0.232607 -1.634311 0.295846 0.197668 -0.934538
0.418966 -0.000000 -1.634311 0.355785 0.000000 -0.934538
0.410921 -0.081681 -1.634311 0.348949 -0.069399 -0.934538
0.387095 -0.160222 -1.634311 0.328715 -0.136143 -0.934538
0.348405 -0.232607 -1.634311 0.295846 -0.197668 -0.934538
0.296337 -0.296052 -1.634311 0.251595 -0.251595 -0.934538
0.232891 -0.348121 -1.634311 0.197668 -0.295846 -0.934538
0.160507 -0.386811 -1.634311 0.136143 -0.328715 -0.934538
0.081965 -0.410636 -1.634311 0.069399 -0.348949 -0.934538
0.000284 -0.418681 -1.634311 0.000000 -0.355785 -0.934538
-0.081396 -0.410636 -1.634311 -0.069399 -0.348949 -0.934538
-0.159938 -0.386811 -1.634311 -0.136143 -0.328715 -0.934538
-0.232322 -0.348121 -1.634311 -0.197668 -0.295846 -0.934538
-0.295768 -0.296052 -1.634311 -0.251595 -0.251595 -0.934538
-0.347836 -0.232607 -1.634311 -0.295846 -0.197668 -0.934538
-0.386527 -0.160222 -1.634311 -0.328715 -0.136143 -0.934538
-0.410352 -0.081680 -1.634311 -0.348949 -0.069399 -0.934538
-0.418397 0.000000 -1.634311 -0.355785 0.000000 -0.934538
-0.410352 0.081681 -1.634311 -0.348949 0.069399 -0.934538
-0.386526 0.160223 -1.634311 -0.328715 0.136143 -0.934538
-0.347836 0.232607 -1.634311 -0.295846 0.197668 -0.934538
-0.295767 0.296053 -1.634311 -0.251595 0.251595 -0.934538
-0.232322 0.348121 -1.634311 -0.197668 0.295846 -0.934538
-0.159937 0.386811 -1.634311 -0.136143 0.328715 -0.934538
0.253621 -0.379145 -0.047898 0.508103 -0.760430 0.404401
0.284210 -0.283926 0.053115 0.580889 -0.580889 0.570177
0.223364 -0.333861 0.053115 0.456404 -0.683035 0.570177
-0.322152 -0.322436 -0.047898 -0.646687 -0.646687 0.404401
-0.378860 -0.253336 -0.047898 -0.760430 -0.508103 0.404401
-0.253051 0.379145 -0.047898 -0.508103 0.760430 0.404401
-0.174216 0.421283 -0.047898 -0.349986 0.844935 0.404401
0.447516 0.088960 -0.047898 0.896969 0.178411 0.404401
0.456278 -0.000000 -0.047898 0.914548 0.000000 0.404401
0.000284 -0.455993 -0.047898 0.000000 -0.914548 0.404401
-0.088676 -0.447231 -0.047898 -0.178411 -0.896969 0.404401
-0.446947 0.088960 -0.047898 -0.896969 0.178411 0.404401
-0.420998 0.174501 -0.047898 -0.844935 0.349986 0.404401
0.253621 0.379144 -0.047898 0.508103 0.760430 0.404401
0.322720 0.322436 -0.047898 0.646687 0.646687 0.404401
-0.420998 -0.174501 -0.047898 -0.844935 -0.349986 0.404401
-0.088675 0.447232 -0.047898 -0.178411 0.896969 0.404401
0.447516 -0.088960 -0.047898 0.896969 -0.178411 0.404401
-0.174217 -0.421283 -0.047898 -0.349986 -0.844935 0.404401
-0.378860 0.253337 -0.047898 -0.760430 0.508103 0.404401
0.379429 0.253336 -0.047898 0.760430 0.508103 0.404401
0.174785 -0.421283 -0.047898 0.349986 -0.844935 0.404401
-0.446947 -0.088960 -0.047898 -0.896969 -0.178411 0.404401
0.000285 0.455993 -0.047898 0.000000 0.914548 0.404401
0.089244 0.447231 -0.047898 0.178411 0.896969 0.404401
0.421567 -0.174501 -0.047898 0.844935 -0.349986 0.404401
-0.253052 -0.379144 -0.047898 -0.508103 -0.760430 0.404401
-0.322151 0.322436 -0.047898 -0.646687 0.646687 0.404401
0.421567 0.174501 -0.047898 0.844935 0.349986 0.404401
0.089244 -0.447231 -0.047898 0.178411 -0.896969 0.404401
-0.455709 0.000000 -0.047898 -0.914548 0.000000 0.404401
0.174786 0.421283 -0.047898 0.349986 0.844935 0.404401
0.000284 -0.401532 0.053115 0.000000 -0.821497 0.570177
0.078619 -0.393816 0.053115 0.160253 -0.805719 0.570177
0.061406 -0.307279 0.152257 0.121738 -0.612110 0.781304
0.000284 -0.313299 0.152257 0.000000 -0.624104 0.781304
-0.370682 0.153660 0.053115 -0.758965 0.314371 0.570177
-0.333577 0.223079 0.053115 -0.683035 0.456404 0.570177
0.153944 -0.370967 0.053115 0.314371 -0.758965 0.570177
0.000285 0.401532 0.053115 0.000000 0.821497 0.570177
0.078619 0.393816 0.053115 0.160253 0.805719 0.570177
-0.283641 0.283926 0.053115 -0.580889 0.580889 0.570177
0.153944 0.370967 0.053115 0.314371 0.758965 0.570177
-0.222794 0.333862 0.053115 -0.456404 0.683035 0.570177
0.223364 0.333861 0.053115 0.456404 0.683035 0.570177
-0.153374 0.370967 0.053115 -0.314371 0.758965 0.570177
-0.078051 -0.393816 0.053115 -0.160253 -0.805719 0.570177
0.284210 0.283926 0.053115 0.580889 0.580889 0.570177
-0.078050 0.393816 0.053115 -0.160253 0.805719 0.570177
-0.153375 -0.370967 0.053115 -0.314371 -0.758965 0.570177
0.334146 0.223079 0.053115 0.683035 0.456404 0.570177
-0.222795 -0.333861 0.053115 -0.456404 -0.683035 0.570177
0.371251 0.153659 0.053115 0.758965 0.314371 0.570177
-0.283641 -0.283926 0.053115 -0.580889 -0.580889 0.570177
0.394101 0.078335 0.053115 0.805719 0.160253 0.570177
-0.333577 -0.223079 0.053115 -0.683035 -0.456404 0.570177
0.401816 0.000000 0.053115 0.821497 0.000000 0.570177
-0.370682 -0.153659 0.053115 -0.758965 -0.314371 0.570177
0.394101 -0.078335 0.053115 0.805719 -0.160253 0.570177
-0.393532 -0.078335 0.053115 -0.805719 -0.160253 0.570177
0.371251 -0.153659 0.053115 0.758965 -0.314371 0.570177
-0.401247 0.000000 0.053115 -0.821497 0.000000 0.570177
0.334146 -0.223079 0.053115 0.683035 -0.456404 0.570177
-0.393532 0.078335 0.053115 -0.805719 0.160253 0.570177
-0.173775 -0.260499 0.152257 -0.346721 -0.518937 0.781304
-0.119610 -0.289451 0.152257 -0.238838 -0.576586 0.781304
-0.083129 -0.201379 0.202763 -0.324412 -0.783197 0.530412
-0.120814 -0.181236 0.202763 -0.470962 -0.704856 0.530412
0.120179 0.289451 0.152257 0.238838 0.576586 0.781304
0.174344 0.260499 0.152257 0.346721 0.518937 0.781304
-0.173775 0.260499 0.152257 -0.346721 0.518937 0.781304
-0.119609 0.289451 0.152257 -0.238838 0.576586 0.781304
-0.060837 -0.307279 0.152257 -0.121738 -0.612110 0.781304
0.221821 0.221536 0.152257 0.441298 0.441298 0.781304
-0.060837 0.307279 0.152257 -0.121738 0.612110 0.781304
0.260783 0.174060 0.152257 0.518937 0.346721 0.781304
0.000285 0.313299 0.152257 0.000000 0.624104 0.781304
0.289735 0.119894 0.152257 0.576586 0.238838 0.781304
-0.221252 -0.221536 0.152257 -0.441298 -0.441298 0.781304
0.307564 0.061122 0.152257 0.612110 0.121738 0.781304
-0.260214 -0.174060 0.152257 -0.518937 -0.346721 0.781304
0.313584 0.000000 0.152257 0.624104 0.000000 0.781304
-0.289166 -0.119894 0.152257 -0.576586 -0.238838 0.781304
0.307564 -0.061122 0.152257 0.612110 -0.121738 0.781304
-0.306995 -0.061121 0.152257 -0.612110 -0.121738 0.781304
0.289735 -0.119894 0.152257 0.576586 -0.238838 0.781304
-0.313015 0.000000 0.152257 -0.624104 0.000000 0.781304
0.260783 -0.174060 0.152257 0.518937 -0.346721 0.781304
-0.306995 0.061122 0.152257 -0.612110 0.121738 0.781304
0.221821 -0.221536 0.152257 0.441298 -0.441298 0.781304
-0.289166 0.119895 0.152257 -0.576586 0.238838 0.781304
0.174344 -0.260499 0.152257 0.346721 -0.518937 0.781304
-0.260214 0.174060 0.152257 -0.518937 0.346721 0.781304
0.120179 -0.289451 0.152257 0.238838 -0.576586 0.781304
0.061406 0.307279 0.152257 0.121738 0.612110 0.781304
-0.221251 0.221536 0.152257 -0.441298 0.441298 0.781304
-0.201095 -0.083414 0.202763 -0.783197 -0.324412 0.530412
-0.180952 -0.121098 0.202763 -0.704856 -0.470962 0.530412
-0.180952 -0.121098 0.352411 -0.804956 -0.537858 -0.250435
-0.201095 -0.083414 0.352411 -0.894436 -0.370464 -0.250435
0.181521 0.121098 0.202763 0.704856 0.470962 0.530412
0.201663 0.083414 0.202763 0.783197 0.324412 0.530412
-0.153844 -0.154129 0.202763 -0.599414 -0.599414 0.530412
0.214067 0.042524 0.202763 0.831446 0.165380 0.530412
0.218256 0.000000 0.202763 0.847713 0.000000 0.530412
0.214067 -0.042524 0.202763 0.831446 -0.165380 0.530412
-0.213498 -0.042524 0.202763 -0.831446 -0.165380 0.530412
0.201663 -0.083414 0.202763 0.783197 -0.324412 0.530412
-0.217687 0.000000 0.202763 -0.847713 0.000000 0.530412
0.181521 -0.121098 0.202763 0.704856 -0.470962 0.530412
-0.213498 0.042524 0.202763 -0.831446 0.165380 0.530412
0.154413 -0.154129 0.202763 0.599414 -0.599414 0.530412
-0.201094 0.083414 0.202763 -0.783197 0.324412 0.530412
0.121383 -0.181236 0.202763 0.470962 -0.704856 0.530412
-0.180952 0.121098 0.202763 -0.704856 0.470962 0.530412
0.083698 -0.201379 0.202763 0.324412 -0.783197 0.530412
0.000285 0.217971 0.202763 0.000000 0.847713 0.530412
0.042809 0.213783 0.202763 0.165380 0.831446 0.530412
-0.153844 0.154129 0.202763 -0.599414 0.599414 0.530412
0.042809 -0.213783 0.202763 0.165380 -0.831446 0.530412
0.083698 0.201379 0.202763 0.324412 0.783197 0.530412
-0.120813 0.181236 0.202763 -0.470962 0.704856 0.530412
0.000284 -0.217971 0.202763 0.000000 -0.847713 0.530412
0.121383 0.181236 0.202763 0.470962 0.704856 0.530412
-0.083129 0.201379 0.202763 -0.324412 0.783197 0.530412
-0.042240 -0.213783 0.202763 -0.165380 -0.831446 0.530412
0.154413 0.154129 0.202763 0.599414 0.599414 0.530412
-0.042239 0.213783 0.202763 -0.165380 0.831446 0.530412
-0.213498 0.042524 0.352411 -0.949522 0.188849 -0.250435
-0.217687 0.000000 0.352411 -0.968108 0.000000 -0.250435
-0.232961 0.000000 0.380470 -0.970000 0.000000 -0.243049
-0.228479 0.045504 0.380470 -0.951353 0.189215 -0.243049
0.218255 0.000000 0.352411 0.968108 0.000000 -0.250435
0.214067 -0.042524 0.352411 0.949522 -0.188849 -0.250435
-0.213498 -0.042524 0.352411 -0.949522 -0.188849 -0.250435
0.201663 -0.083414 0.352411 0.894436 -0.370464 -0.250435
0.181521 -0.121098 0.352411 0.804956 -0.537858 -0.250435
0.154413 -0.154129 0.352411 0.684561 -0.684561 -0.250435
-0.201094 0.083414 0.352411 -0.894436 0.370464 -0.250435
0.121383 -0.181236 0.352411 0.537858 -0.804956 -0.250435
-0.180952 0.121098 0.352411 -0.804956 0.537858 -0.250435
0.083698 -0.201379 0.352411 0.370464 -0.894436 -0.250435
0.000284 0.217971 0.352411 0.000000 0.968108 -0.250435
0.042808 0.213783 0.352411 0.188849 0.949522 -0.250435
-0.153844 0.154129 0.352411 -0.684561 0.684561 -0.250435
0.042808 -0.213783 0.352411 0.188849 -0.949522 -0.250435
0.083698 0.201379 0.352411 0.370464 0.894436 -0.250435
-0.120814 0.181236 0.352411 -0.537858 0.804956 -0.250435
0.000284 -0.217971 0.352411 0.000000 -0.968108 -0.250435
0.121383 0.181236 0.352411 0.537858 0.804956 -0.250435
-0.083129 0.201379 0.352411 -0.370464 0.894436 -0.250435
-0.042240 -0.213783 0.352411 -0.188849 -0.949522 -0.250435
0.154413 0.154129 0.352411 0.684561 0.684561 -0.250435
-0.042239 0.213783 0.352411 -0.188849 0.949522 -0.250435
-0.083130 -0.201379 0.352411 -0.370464 -0.894436 -0.250435
0.181521 0.121098 0.352411 0.804956 0.537858 -0.250435
-0.120814 -0.181236 0.352411 -0.537858 -0.804956 -0.250435
0.201663 0.083414 0.352411 0.894436 0.370464 -0.250435
-0.153844 -0.154129 0.352411 -0.684561 -0.684561 -0.250435
0.214067 0.042524 0.352411 0.949522 0.188849 -0.250435
-0.164645 0.164930 0.380470 -0.685873 0.685873 -0.243049
-0.193652 0.129584 0.380470 -0.806513 0.538896 -0.243049
-0.193652 0.129584 0.412270 -0.775414 0.518113 0.360881
-0.164645 0.164930 0.412270 -0.659444 0.659444 0.360881
0.194221 -0.129584 0.380470 0.806513 -0.538896 -0.243049
0.165214 -0.164929 0.380470 0.685873 -0.685873 -0.243049
-0.215206 0.089259 0.380470 -0.896146 0.371197 -0.243049
0.129869 -0.193936 0.380470 0.538896 -0.806513 -0.243049
0.089544 -0.215491 0.380470 0.371197 -0.896146 -0.243049
0.000284 0.233245 0.380470 0.000000 0.970000 -0.243049
0.045788 0.228764 0.380470 0.189215 0.951353 -0.243049
0.045788 -0.228764 0.380470 0.189215 -0.951353 -0.243049
0.089544 0.215491 0.380470 0.371197 0.896146 -0.243049
-0.129299 0.193937 0.380470 -0.538896 0.806513 -0.243049
0.000284 -0.233245 0.380470 0.000000 -0.970000 -0.243049
0.129869 0.193936 0.380470 0.538896 0.806513 -0.243049
-0.088974 0.215491 0.380470 -0.371197 0.896146 -0.243049
-0.045220 -0.228764 0.380470 -0.189215 -0.951353 -0.243049
0.165214 0.164929 0.380470 0.685873 0.685873 -0.243049
-0.045219 0.228764 0.380470 -0.189215 0.951353 -0.243049
-0.088975 -0.215491 0.380470 -0.371197 -0.896146 -0.243049
0.194221 0.129584 0.380470 0.806513 0.538896 -0.243049
-0.129300 -0.193936 0.380470 -0.538896 -0.806513 -0.243049
0.215775 0.089259 0.380470 0.896146 0.371197 -0.243049
-0.164645 -0.164929 0.380470 -0.685873 -0.685873 -0.243049
0.229048 0.045504 0.380470 0.951353 0.189215 -0.243049
-0.193652 -0.129584 0.380470 -0.806513 -0.538896 -0.243049
0.233530 0.000000 0.380470 0.970000 0.000000 -0.243049
-0.215206 -0.089259 0.380470 -0.896146 -0.371197 -0.243049
0.229048 -0.045504 0.380470 0.951353 -0.189215 -0.243049
-0.228479 -0.045504 0.380470 -0.951353 -0.189215 -0.243049
0.215775 -0.089259 0.380470 0.896146 -0.371197 -0.243049
-0.045219 0.228764 0.412270 -0.181921 0.914670 0.360881
-0.088974 0.215491 0.412270 -0.356883 0.861599 0.360881
-0.074159 0.179724 0.453424 0.121006 -0.292184 0.948637
-0.037666 0.190793 0.453424 0.061678 -0.310190 0.948637
0.089544 -0.215491 0.412270 0.356883 -0.861599 0.360881
0.045788 -0.228764 0.412270 0.181921 -0.914670 0.360881
0.045788 0.228764 0.412270 0.181921 0.914670 0.360881
0.089544 0.215491 0.412270 0.356883 0.861599 0.360881
-0.129299 0.193937 0.412270 -0.518113 0.775414 0.360881
0.000284 -0.233245 0.412270 0.000000 -0.932585 0.360881
0.129869 0.193936 0.412270 0.518113 0.775414 0.360881
-0.045220 -0.228764 0.412270 -0.181921 -0.914670 0.360881
0.165214 0.164929 0.412270 0.659444 0.659444 0.360881
-0.088975 -0.215491 0.412270 -0.356883 -0.861599 0.360881
0.194221 0.129584 0.412270 0.775414 0.518113 0.360881
0.000284 0.233245 0.412270 0.000000 0.932585 0.360881
-0.129300 -0.193936 0.412270 -0.518113 -0.775414 0.360881
0.215775 0.089259 0.412270 0.861599 0.356883 0.360881
-0.164645 -0.164929 0.412270 -0.659444 -0.659444 0.360881
0.229048 0.045504 0.412270 0.914670 0.181921 0.360881
-0.193652 -0.129584 0.412270 -0.775414 -0.518113 0.360881
0.233530 0.000000 0.412270 0.932585 0.000000 0.360881
-0.215206 -0.089259 0.412270 -0.861599 -0.356883 0.360881
0.229048 -0.045504 0.412270 0.914670 -0.181921 0.360881
-0.228479 -0.045504 0.412270 -0.914670 -0.181921 0.360881
0.215775 -0.089259 0.412270 0.861599 -0.356883 0.360881
-0.232961 0.000000 0.412270 -0.932585 0.000000 0.360881
0.194221 -0.129584 0.412270 0.775414 -0.518113 0.360881
-0.228479 0.045504 0.412270 -0.914670 0.181921 0.360881
0.165214 -0.164929 0.412270 0.659444 -0.659444 0.360881
-0.215206 0.089259 0.412270 -0.861599 0.356883 0.360881
0.129869 -0.193936 0.412270 0.518113 -0.775414 0.360881
-0.161462 -0.108076 0.453424 0.262978 0.175695 0.948637
-0.137270 -0.137554 0.453424 0.223640 0.223640 0.948637
-0.137270 -0.137554 0.353152 0.707083 0.707083 0.000000
-0.161462 -0.108076 0.353152 0.831446 0.555559 0.000000
-0.037667 -0.190793 0.453424 0.061678 0.310190 0.948637
-0.074160 -0.179723 0.453424 0.121036 0.292184 0.948637
0.137839 0.137554 0.453424 -0.223640 -0.223640 0.948637
0.162031 0.108076 0.453424 -0.262978 -0.175695 0.948637
0.000284 0.194531 0.453424 0.000000 -0.316263 0.948637
-0.107791 -0.161747 0.453424 0.175695 0.262978 0.948637
0.180008 0.074444 0.453424 -0.292184 -0.121006 0.948637
0.191078 0.037951 0.453424 -0.310190 -0.061678 0.948637
0.194816 0.000000 0.453424 -0.316263 0.000000 0.948637
-0.179439 -0.074444 0.453424 0.292184 0.121006 0.948637
0.191078 -0.037951 0.453424 -0.310190 0.061678 0.948637
-0.190509 -0.037951 0.453424 0.310190 0.061678 0.948637
0.180008 -0.074444 0.453424 -0.292184 0.121006 0.948637
-0.194247 0.000000 0.453424 0.316263 0.000000 0.948637
0.162031 -0.108076 0.453424 -0.262978 0.175695 0.948637
-0.190509 0.037951 0.453424 0.310190 -0.061678 0.948637
0.137839 -0.137554 0.453424 -0.223640 0.223640 0.948637
-0.179439 0.074444 0.453424 0.292184 -0.121006 0.948637
0.108360 -0.161747 0.453424 -0.175695 0.262978 0.948637
-0.161462 0.108076 0.453424 0.262947 -0.175695 0.948637
0.074728 -0.179723 0.453424 -0.121006 0.292184 0.948637
0.038236 0.190793 0.453424 -0.061678 -0.310190 0.948637
-0.137270 0.137555 0.453424 0.223640 -0.223640 0.948637
0.038236 -0.190793 0.453424 -0.061678 0.310190 0.948637
0.074728 0.179723 0.453424 -0.121006 -0.292184 0.948637
-0.107791 0.161747 0.453424 0.175695 -0.262978 0.948637
0.000284 -0.194531 0.453424 0.000000 0.316263 0.948637
0.108360 0.161747 0.453424 -0.175695 -0.262978 0.948637
0.191078 0.037951 0.353152 -0.980773 -0.195074 0.000000
0.194816 0.000000 0.353152 -1.000000 0.000000 0.000000
-0.179439 -0.074444 0.353152 0.923856 0.382672 0.000000
0.191078 -0.037951 0.353152 -0.980773 0.195074 0.000000
-0.190509 -0.037951 0.353152 0.980773 0.195074 0.000000
0.180008 -0.074444 0.353152 -0.923856 0.382672 0.000000
-0.194247 0.000000 0.353152 0.999969 0.000000 0.000000
0.162031 -0.108076 0.353152 -0.831446 0.555559 0.000000
-0.190509 0.037951 0.353152 0.980773 -0.195074 0.000000
0.137839 -0.137554 0.353152 -0.707083 0.707083 0.000000
-0.179439 0.074444 0.353152 0.923856 -0.382672 0.000000
0.108360 -0.161747 0.353152 -0.555559 0.831446 0.000000
-0.161462 0.108076 0.353152 0.831446 -0.555559 0.000000
0.074728 -0.179723 0.353152 -0.382672 0.923856 0.000000
0.000284 0.194531 0.353152 0.000000 -1.000000 0.000000
0.038236 0.190793 0.353152 -0.195074 -0.980773 0.000000
-0.137270 0.137555 0.353152 0.707083 -0.707083 0.000000
0.038236 -0.190793 0.353152 -0.195074 0.980773 0.000000
0.074728 0.179723 0.353152 -0.382672 -0.923856 0.000000
-0.107791 0.161747 0.353152 0.555559 -0.831446 0.000000
0.000284 -0.194531 0.353152 0.000000 1.000000 0.000000
0.108360 0.161747 0.353152 -0.555559 -0.831446 0.000000
-0.074159 0.179724 0.353152 0.382672 -0.923856 0.000000
-0.037667 -0.190793 0.353152 0.195074 0.980773 0.000000
0.137839 0.137554 0.353152 -0.707083 -0.707083 0.000000
-0.037666 0.190793 0.353152 0.195074 -0.980773 0.000000
-0.074160 -0.179723 0.353152 0.382672 0.923856 0.000000
0.162031 0.108076 0.353152 -0.831446 -0.555559 0.000000
-0.107791 -0.161747 0.353152 0.555559 0.831446 0.000000
0.180008 0.074444 0.353152 -0.923856 -0.382672 0.000000
-0.018056 0.175577 0.272054 -0.125950 0.893063 -0.431898
-0.023571 0.203300 0.594922 -0.131962 0.941313 0.310648
-0.017765 0.203872 0.594922 -0.054201 0.948973 0.310648
-0.017765 0.175605 0.272054 -0.050661 0.900479 -0.431898
0.082428 0.155676 0.272054 0.391400 0.812525 -0.431898
0.093245 0.181791 0.594922 0.413221 0.855983 0.310648
0.098391 0.179040 0.594922 0.482131 0.819147 0.310648
0.082687 0.155538 0.272054 0.458144 0.776879 -0.431898
0.111203 0.136484 0.272054 0.542405 0.720573 -0.431898
0.126907 0.159986 0.594922 0.572283 0.758904 0.310648
0.131417 0.156285 0.594922 0.632679 0.709342 0.310648
0.111430 0.136297 0.272054 0.600879 0.672567 -0.431898
0.135681 0.112046 0.272054 0.672567 0.600879 -0.431898
0.155669 0.132033 0.594922 0.709342 0.632679 0.310648
0.159370 0.127523 0.594922 0.758904 0.572283 0.310648
0.135867 0.111819 0.272054 0.720573 0.542405 -0.431898
0.154921 0.083303 0.272054 0.776879 0.458144 -0.431898
0.178424 0.099007 0.594922 0.819147 0.482131 0.310648
0.181175 0.093861 0.594922 0.855983 0.413221 0.310648
0.155060 0.083044 0.272054 0.812525 0.391400 -0.431898
0.168184 0.051358 0.272054 0.851314 0.297769 -0.431898
0.194299 0.062175 0.594922 0.897458 0.313059 0.310648
0.195993 0.056592 0.594922 0.920164 0.238289 0.310648
0.168270 0.051077 0.272054 0.873287 0.225379 -0.431898
0.174961 0.017440 0.272054 0.893063 0.125950 -0.431898
0.202684 0.022955 0.594922 0.941313 0.131932 0.310648
0.203256 0.017148 0.594922 0.948973 0.054201 0.310648
0.174989 0.017148 0.272054 0.900479 0.050661 -0.431898
0.174989 -0.017148 0.272054 0.900479 -0.050661 -0.431898
0.203256 -0.017148 0.594922 0.948973 -0.054201 0.310648
0.202684 -0.022955 0.594922 0.941313 -0.131932 0.310648
0.174961 -0.017441 0.272054 0.893063 -0.125950 -0.431898
0.168270 -0.051078 0.272054 0.873287 -0.225379 -0.431898
0.195993 -0.056592 0.594922 0.920164 -0.238289 0.310648
0.194299 -0.062176 0.594922 0.897458 -0.313059 0.310648
0.168184 -0.051359 0.272054 0.851314 -0.297769 -0.431898
0.155060 -0.083044 0.272054 0.812525 -0.391400 -0.431898
0.181175 -0.093861 0.594922 0.855983 -0.413221 0.310648
0.178424 -0.099007 0.594922 0.819147 -0.482131 0.310648
0.154921 -0.083303 0.272054 0.776879 -0.458144 -0.431898
0.135867 -0.111820 0.272054 0.720573 -0.542405 -0.431898
0.159370 -0.127524 0.594922 0.758904 -0.572283 0.310648
0.155669 -0.132034 0.594922 0.709342 -0.632679 0.310648
0.135681 -0.112047 0.272054 0.672567 -0.600879 -0.431898
0.111430 -0.136298 0.272054 0.600879 -0.672567 -0.431898
0.131417 -0.156285 0.594922 0.632679 -0.709342 0.310648
0.126907 -0.159987 0.594922 0.572283 -0.758904 0.310648
0.111203 -0.136484 0.272054 0.542405 -0.720573 -0.431898
0.082687 -0.155538 0.272054 0.458144 -0.776879 -0.431898
0.098391 -0.179041 0.594922 0.482131 -0.819147 0.310648
0.093245 -0.181791 0.594922 0.413221 -0.855983 0.310648
0.082428 -0.155676 0.272054 0.391400 -0.812525 -0.431898
0.050742 -0.168801 0.272054 0.297769 -0.851344 -0.431898
0.061559 -0.194916 0.594922 0.313059 -0.897458 0.310648
0.055976 -0.196610 0.594922 0.238289 -0.920164 0.310648
0.050461 -0.168886 0.272054 0.225379 -0.873287 -0.431898
0.016824 -0.175577 0.272054 0.125950 -0.893063 -0.431898
0.022338 -0.203300 0.594922 0.131932 -0.941313 0.310648
0.016532 -0.203872 0.594922 0.054201 -0.948973 0.310648
0.016532 -0.175606 0.272054 0.050661 -0.900479 -0.431898
-0.017765 -0.175606 0.272054 -0.050661 -0.900479 -0.431898
-0.017765 -0.203872 0.594922 -0.054201 -0.948973 0.310648
-0.023571 -0.203300 0.594922 -0.131932 -0.941313 0.310648
-0.018057 -0.175577 0.272054 -0.125950 -0.893063 -0.431898
-0.051694 -0.168886 0.272054 -0.225379 -0.873287 -0.431898
-0.057209 -0.196609 0.594922 -0.238289 -0.920164 0.310648
-0.062792 -0.194916 0.594922 -0.313059 -0.897458 0.310648
-0.051975 -0.168801 0.272054 -0.297769 -0.851314 -0.431898
-0.083661 -0.155676 0.272054 -0.391430 -0.812525 -0.431898
-0.094478 -0.181791 0.594922 -0.413221 -0.855983 0.310648
-0.099624 -0.179041 0.594922 -0.482131 -0.819147 0.310648
-0.083920 -0.155538 0.272054 -0.458144 -0.776879 -0.431898
-0.112436 -0.136484 0.272054 -0.542405 -0.720573 -0.431898
-0.128140 -0.159987 0.594922 -0.572283 -0.758904 0.310648
-0.132650 -0.156285 0.594922 -0.632679 -0.709342 0.310648
-0.112663 -0.136298 0.272054 -0.600879 -0.672567 -0.431867
-0.136914 -0.112047 0.272054 -0.672567 -0.600879 -0.431898
-0.156901 -0.132034 0.594922 -0.709342 -0.632679 0.310648
-0.160603 -0.127524 0.594922 -0.758904 -0.572283 0.310648
-0.137100 -0.111820 0.272054 -0.720573 -0.542405 -0.431898
-0.156154 -0.083303 0.272054 -0.776879 -0.458144 -0.431898
-0.179657 -0.099007 0.594922 -0.819147 -0.482131 0.310648
-0.182407 -0.093861 0.594922 -0.855983 -0.413221 0.310648
-0.156293 -0.083044 0.272054 -0.812525 -0.391400 -0.431898
-0.169417 -0.051359 0.272054 -0.851344 -0.297769 -0.431898
-0.195532 -0.062176 0.594922 -0.897458 -0.313059 0.310648
-0.197226 -0.056592 0.594922 -0.920164 -0.238289 0.310648
-0.169502 -0.051078 0.272054 -0.873287 -0.225379 -0.431898
-0.176193 -0.017440 0.272054 -0.893063 -0.125950 -0.431898
-0.203917 -0.022955 0.594922 -0.941313 -0.131932 0.310648
-0.204488 -0.017148 0.594922 -0.948973 -0.054201 0.310648
-0.176222 -0.017148 0.272054 -0.900479 -0.050661 -0.431898
-0.176222 0.017148 0.272054 -0.900479 0.050661 -0.431898
-0.204488 0.017148 0.594922 -0.948973 0.054201 0.310648
-0.203917 0.022955 0.594922 -0.941313 0.131932 0.310648
-0.176193 0.017440 0.272054 -0.893063 0.125950 -0.431898
-0.169502 0.051078 0.272054 -0.873287 0.225379 -0.431898
-0.197226 0.056592 0.594922 -0.920164 0.238289 0.310648
-0.195532 0.062176 0.594922 -0.897458 0.313059 0.310648
-0.169417 0.051359 0.272054 -0.851344 0.297769 -0.431898
-0.156292 0.083044 0.272054 -0.812525 0.391430 -0.431898
-0.182407 0.093861 0.594922 -0.855983 0.413221 0.310648
-0.179657 0.099007 0.594922 -0.819147 0.482131 0.310648
-0.156154 0.083303 0.272054 -0.776879 0.458144 -0.431898
-0.137100 0.111819 0.272054 -0.720573 0.542405 -0.431898
-0.160603 0.127523 0.594922 -0.758904 0.572283 0.310648
-0.156901 0.132034 0.594922 -0.709342 0.632679 0.310648
-0.136914 0.112046 0.272054 -0.672567 0.600879 -0.431898
-0.112663 0.136297 0.272054 -0.600879 0.672567 -0.431898
-0.132650 0.156285 0.594922 -0.632679 0.709342 0.310648
-0.128140 0.159986 0.594922 -0.572283 0.758904 0.310648
-0.112436 0.136484 0.272054 -0.542405 0.720573 -0.431898
-0.083919 0.155538 0.272054 -0.458144 0.776879 -0.431898
-0.099623 0.179040 0.594922 -0.482131 0.819147 0.310648
-0.094477 0.181791 0.594922 -0.413221 0.855983 0.310648
-0.083660 0.155676 0.272054 -0.391400 0.812525 -0.431898
-0.051975 0.168801 0.272054 -0.297769 0.851314 -0.431898
-0.062792 0.194915 0.594922 -0.313059 0.897458 0.310648
-0.057208 0.196609 0.594922 -0.238289 0.920164 0.310648
-0.051694 0.168886 0.272054 -0.225379 0.873287 -0.431898
0.050461 0.168886 0.272054 0.225379 0.873287 -0.431898
0.055976 0.196609 0.594922 0.238289 0.920164 0.310648
0.061559 0.194915 0.594922 0.313059 0.897458 0.310648
0.050742 0.168801 0.272054 0.297769 0.851314 -0.431898
0.071998 0.175306 0.612087 0.165624 0.399915 0.901425
0.036402 0.186104 0.612088 0.084445 0.424543 0.901425
-0.000616 0.189750 0.612088 0.000000 0.432875 0.901425
-0.037634 0.186104 0.612088 -0.084445 0.424543 0.901425
-0.073230 0.175306 0.612088 -0.165624 0.399915 0.901425
-0.106036 0.157771 0.612088 -0.240486 0.359905 0.901425
-0.134790 0.134173 0.612088 -0.306070 0.306070 0.901425
-0.158388 0.105419 0.612088 -0.359905 0.240486 0.901425
-0.175922 0.072614 0.612088 -0.399915 0.165654 0.901425
-0.186720 0.037018 0.612088 -0.424543 0.084445 0.901425
-0.190366 -0.000000 0.612088 -0.432875 0.000000 0.901425
-0.186720 -0.037018 0.612088 -0.424543 -0.084445 0.901425
-0.175923 -0.072614 0.612088 -0.399915 -0.165624 0.901425
-0.158388 -0.105420 0.612088 -0.359905 -0.240486 0.901425
-0.134790 -0.134174 0.612088 -0.306070 -0.306070 0.901425
-0.106036 -0.157772 0.612088 -0.240486 -0.359905 0.901425
-0.073231 -0.175306 0.612088 -0.165654 -0.399915 0.901425
-0.037635 -0.186104 0.612088 -0.084445 -0.424543 0.901425
-0.000616 -0.189750 0.612088 0.000000 -0.432875 0.901425
0.036402 -0.186104 0.612088 0.084445 -0.424543 0.901425
0.071998 -0.175306 0.612087 0.165624 -0.399915 0.901425
0.104803 -0.157772 0.612087 0.240486 -0.359905 0.901425
0.133557 -0.134174 0.612087 0.306070 -0.306070 0.901425
0.157155 -0.105420 0.612087 0.359905 -0.240486 0.901425
0.174690 -0.072614 0.612087 0.399915 -0.165654 0.901425
0.185488 -0.037019 0.612087 0.424543 -0.084445 0.901425
0.189134 -0.000000 0.612087 0.432875 0.000000 0.901425
0.185488 0.037018 0.612087 0.424543 0.084445 0.901425
0.174690 0.072614 0.612087 0.399915 0.165654 0.901425
0.157155 0.105419 0.612087 0.359905 0.240486 0.901425
0.133557 0.134173 0.612087 0.306070 0.306070 0.901425
0.104803 0.157771 0.612087 0.240486 0.359905 0.901425
0.016532 0.175605 0.272054 0.050661 0.900479 -0.431898
0.016532 0.203872 0.594922 0.054201 0.948973 0.310648
0.022338 0.203300 0.594922 0.131962 0.941313 0.310648
0.016824 0.175577 0.272054 0.125950 0.893063 -0.431898
-0.000616 0.158478 0.254889 0.000000 0.389264 -0.921110
0.030301 0.155433 0.254889 0.075930 0.381787 -0.921110
0.060030 0.146414 0.254889 0.148961 0.359630 -0.921110
0.087429 0.131769 0.254889 0.216254 0.323649 -0.921110
0.111444 0.112061 0.254889 0.275246 0.275246 -0.921110
0.131153 0.088045 0.254889 0.323649 0.216254 -0.921110
0.145798 0.060647 0.254889 0.359630 0.148961 -0.921110
0.154816 0.030917 0.254889 0.381787 0.075930 -0.921110
0.157862 -0.000000 0.254889 0.389264 0.000000 -0.921110
0.154816 -0.030918 0.254889 0.381787 -0.075930 -0.921110
0.145798 -0.060647 0.254889 0.359630 -0.148961 -0.921110
0.131153 -0.088046 0.254889 0.323649 -0.216254 -0.921110
0.111444 -0.112061 0.254889 0.275246 -0.275246 -0.921110
0.087429 -0.131770 0.254889 0.216254 -0.323649 -0.921110
0.060030 -0.146415 0.254889 0.148961 -0.359630 -0.921110
0.030301 -0.155433 0.254889 0.075930 -0.381787 -0.921110
-0.000616 -0.158478 0.254889 0.000000 -0.389264 -0.921110
-0.031534 -0.155433 0.254889 -0.075930 -0.381787 -0.921110
-0.061263 -0.146415 0.254889 -0.148961 -0.359630 -0.921110
-0.088662 -0.131770 0.254889 -0.216254 -0.323679 -0.921110
-0.112677 -0.112061 0.254889 -0.275246 -0.275246 -0.921110
-0.132386 -0.088046 0.254889 -0.323679 -0.216254 -0.921110
-0.147031 -0.060647 0.254889 -0.359630 -0.148961 -0.921110
-0.156049 -0.030918 0.254889 -0.381787 -0.075930 -0.921110
-0.159094 -0.000000 0.254889 -0.389264 0.000000 -0.921110
-0.156049 0.030917 0.254889 -0.381787 0.075930 -0.921110
-0.147031 0.060647 0.254889 -0.359630 0.148961 -0.921110
-0.132386 0.088046 0.254889 -0.323679 0.216254 -0.921110
-0.112677 0.112061 0.254889 -0.275246 0.275246 -0.921110
-0.088662 0.131769 0.254889 -0.216254 0.323679 -0.921110
-0.061263 0.146414 0.254889 -0.148961 0.359630 -0.921110
-0.031534 0.155433 0.254889 -0.075930 0.381787 -0.921110
4 0 1 2 3
4 3 2 4 5
4 5 4 6 7
4 7 6 8 9
4 9 8 10 11
4 11 10 12 13
4 13 12 14 15
4 15 14 16 17
4 17 16 18 19
4 19 18 20 21
4 21 20 22 23
4 23 22 24 25
4 25 24 26 27
4 27 26 28 29
4 29 28 30 31
4 31 30 32 33
4 33 32 34 35
4 35 34 36 37
4 37 36 38 39
4 39 38 40 41
4 41 40 42 43
4 43 42 44 45
4 45 44 46 47
4 47 46 48 49
4 49 48 50 51
4 51 50 52 53
4 53 52 54 55
4 55 54 56 57
4 57 56 58 59
4 59 58 60 61
4 24 22 62 63
4 61 60 64 65
4 1 0 65 64
4 15 17 66 67
4 68 67 69 70
4 33 35 71 72
4 51 53 73 74
4 7 9 75 76
4 25 27 77 78
4 43 45 79 80
4 61 65 81 82
4 17 19 83 66
4 35 37 84 71
4 53 55 85 73
4 9 11 86 75
4 27 29 87 77
4 45 47 88 79
4 0 3 89 90
4 65 0 90 81
4 19 21 91 83
4 37 39 92 84
4 55 57 93 85
4 11 13 68 86
4 29 31 94 87
4 47 49 95 88
4 3 5 96 89
4 21 23 97 91
4 39 41 98 92
4 57 59 99 93
4 13 15 67 68
4 31 33 72 94
4 49 51 74 95
4 5 7 76 96
4 23 25 78 97
4 41 43 80 98
4 59 61 82 99
3 100 101 102
3 102 103 104
3 104 105 106
3 106 70 69
3 69 107 108
3 108 109 110
3 110 111 112
3 112 113 114
3 114 115 116
3 116 117 118
3 118 119 120
3 120 121 122
3 122 123 124
3 124 125 126
3 126 127 128
3 128 129 100
3 100 102 104
3 104 106 69
3 69 108 110
3 110 112 114
3 114 116 118
3 118 120 122
3 122 124 126
3 126 128 100
3 100 104 69
3 69 110 114
3 114 118 122
3 122 126 100
3 100 69 114
3 114 122 100
4 98 80 120 119
4 67 66 107 69
4 80 79 121 120
4 66 83 108 107
4 79 88 122 121
4 83 91 109 108
4 88 95 123 122
4 91 97 110 109
4 95 74 124 123
4 97 78 111 110
4 74 73 125 124
4 78 77 112 111
4 73 85 126 125
4 77 87 113 112
4 90 89 102 101
4 85 93 127 126
4 87 94 114 113
4 89 96 103 102
4 93 99 128 127
4 94 72 115 114
4 96 76 104 103
4 99 82 129 128
4 72 71 116 115
4 76 75 105 104
4 82 81 100 129
4 71 84 117 116
4 75 86 106 105
4 81 90 101 100
4 84 92 118 117
4 86 68 70 106
4 92 98 119 118
4 130 63 131 132
4 42 40 133 134
4 60 58 135 136
4 16 14 137 138
4 34 32 139 140
4 52 50 141 142
4 8 6 143 144
4 26 24 63 130
4 44 42 134 145
4 64 60 136 146
4 18 16 138 147
4 36 34 140 148
4 54 52 142 149
4 10 8 144 150
4 28 26 130 151
4 46 44 145 152
4 2 1 153 154
4 1 64 146 153
4 20 18 147 155
4 38 36 148 156
4 56 54 149 157
4 12 10 150 158
4 30 28 151 159
4 48 46 152 160
4 4 2 154 161
4 22 20 155 62
4 40 38 156 133
4 58 56 157 135
4 14 12 158 137
4 32 30 159 139
4 50 48 160 141
4 6 4 161 143
4 162 163 164 165
4 149 142 166 167
4 151 130 132 168
4 154 153 169 170
4 157 149 167 171
4 159 151 168 163
4 161 154 170 172
4 135 157 171 173
4 139 159 163 162
4 143 161 172 174
4 136 135 173 175
4 140 139 162 176
4 144 143 174 177
4 146 136 175 178
4 148 140 176 179
4 150 144 177 180
4 153 146 178 169
4 156 148 179 181
4 158 150 180 182
4 133 156 181 183
4 137 158 182 184
4 134 133 183 185
4 138 137 184 186
4 145 134 185 187
4 147 138 186 188
4 152 145 187 189
4 155 147 188 190
4 160 152 189 191
4 62 155 190 192
4 141 160 191 193
4 63 62 192 131
4 142 141 193 166
4 194 195 196 197
4 174 172 198 199
4 175 173 200 201
4 176 162 165 202
4 177 174 199 203
4 178 175 201 204
4 179 176 202 195
4 180 177 203 205
4 169 178 204 206
4 181 179 195 194
4 182 180 205 207
4 183 181 194 208
4 184 182 207 209
4 185 183 208 210
4 186 184 209 211
4 187 185 210 212
4 188 186 211 213
4 189 187 212 214
4 190 188 213 215
4 191 189 214 216
4 192 190 215 217
4 193 191 216 218
4 131 192 217 219
4 166 193 218 220
4 132 131 219 221
4 167 166 220 222
4 168 132 221 223
4 170 169 206 224
4 171 167 222 225
4 163 168 223 164
4 172 170 224 198
4 173 171 225 200
4 226 227 228 229
4 207 205 230 231
4 208 194 197 232
4 209 207 231 233
4 210 208 232 227
4 211 209 233 234
4 212 210 227 226
4 213 211 234 235
4 214 212 226 236
4 215 213 235 237
4 216 214 236 238
4 217 215 237 239
4 218 216 238 240
4 219 217 239 241
4 220 218 240 242
4 221 219 241 243
4 222 220 242 244
4 223 221 243 245
4 224 206 246 247
4 225 222 244 248
4 164 223 245 249
4 198 224 247 250
4 200 225 248 251
4 165 164 249 252
4 199 198 250 253
4 201 200 251 254
4 202 165 252 255
4 203 199 253 256
4 204 201 254 257
4 195 202 255 196
4 205 203 256 230
4 206 204 257 246
4 258 259 260 261
4 235 234 262 263
4 236 226 229 264
4 237 235 263 265
4 238 236 264 259
4 239 237 265 266
4 240 238 259 258
4 241 239 266 267
4 242 240 258 268
4 243 241 267 269
4 244 242 268 270
4 245 243 269 271
4 247 246 272 273
4 248 244 270 274
4 249 245 271 275
4 250 247 273 276
4 251 248 274 277
4 252 249 275 278
4 253 250 276 279
4 254 251 277 280
4 255 252 278 281
4 256 253 279 282
4 257 254 280 283
4 196 255 281 284
4 230 256 282 285
4 246 257 283 272
4 197 196 284 286
4 231 230 285 287
4 232 197 286 288
4 233 231 287 289
4 227 232 288 228
4 234 233 289 262
4 290 291 292 293
4 267 266 294 295
4 268 258 261 296
4 269 267 295 297
4 270 268 296 291
4 271 269 297 298
4 273 272 299 300
4 274 270 291 290
4 275 271 298 301
4 276 273 300 302
4 277 274 290 303
4 278 275 301 304
4 279 276 302 305
4 280 277 303 306
4 281 278 304 307
4 282 279 305 308
4 283 280 306 309
4 284 281 307 310
4 285 282 308 311
4 272 283 309 299
4 286 284 310 312
4 287 285 311 313
4 288 286 312 314
4 289 287 313 315
4 228 288 314 316
4 262 289 315 317
4 229 228 316 318
4 263 262 317 319
4 264 229 318 320
4 265 263 319 321
4 259 264 320 260
4 266 265 321 294
4 322 323 324 325
4 301 298 326 327
4 302 300 328 329
4 303 290 293 330
4 304 301 327 331
4 305 302 329 332
4 306 303 330 323
4 307 304 331 333
4 308 305 332 334
4 309 306 323 322
4 310 307 333 335
4 311 308 334 336
4 299 309 322 337
4 312 310 335 338
4 313 311 336 339
4 314 312 338 340
4 315 313 339 341
4 316 314 340 342
4 317 315 341 343
4 318 316 342 344
4 319 317 343 345
4 320 318 344 346
4 321 319 345 347
4 260 320 346 348
4 294 321 347 349
4 261 260 348 350
4 295 294 349 351
4 296 261 350 352
4 297 295 351 353
4 291 296 352 292
4 298 297 353 326
4 300 299 337 328
4 354 355 356 357
4 335 333 358 359
4 336 334 360 361
4 337 322 325 362
4 338 335 359 363
4 339 336 361 364
4 340 338 363 355
4 341 339 364 365
4 342 340 355 354
4 343 341 365 366
4 344 342 354 367
4 345 343 366 368
4 346 344 367 369
4 347 345 368 370
4 348 346 369 371
4 349 347 370 372
4 350 348 371 373
4 351 349 372 374
4 352 350 373 375
4 353 351 374 376
4 292 352 375 377
4 326 353 376 378
4 328 337 362 379
4 293 292 377 380
4 327 326 378 381
4 329 328 379 382
4 330 293 380 383
4 331 327 381 384
4 332 329 382 385
4 323 330 383 324
4 333 331 384 358
4 334 332 385 360
4 366 365 386 387
4 367 354 357 388
4 368 366 387 389
4 369 367 388 390
4 370 368 389 391
4 371 369 390 392
4 372 370 391 393
4 373 371 392 394
4 374 372 393 395
4 375 373 394 396
4 376 374 395 397
4 377 375 396 398
4 378 376 397 399
4 379 362 400 401
4 380 377 398 402
4 381 378 399 403
4 382 379 401 404
4 383 380 402 405
4 384 381 403 406
4 385 382 404 407
4 324 383 405 408
4 358 384 406 409
4 360 385 407 410
4 325 324 408 411
4 359 358 409 412
4 361 360 410 413
4 362 325 411 400
4 363 359 412 414
4 364 361 413 415
4 355 363 414 356
4 365 364 415 386
4 416 417 418 419
4 420 421 422 423
4 424 425 426 427
4 428 429 430 431
4 432 433 434 435
4 436 437 438 439
4 440 441 442 443
4 444 445 446 447
4 448 449 450 451
4 452 453 454 455
4 456 457 458 459
4 460 461 462 463
4 464 465 466 467
4 468 469 470 471
4 472 473 474 475
4 476 477 478 479
4 480 481 482 483
4 484 485 486 487
4 488 489 490 491
4 492 493 494 495
4 496 497 498 499
4 500 501 502 503
4 504 505 506 507
4 508 509 510 511
4 512 513 514 515
4 516 517 518 519
4 520 521 522 523
4 524 525 526 527
4 528 529 530 531
4 532 533 534 535
4 536 537 538 539
3 540 541 542
3 542 543 544
3 544 545 546
3 546 547 548
3 548 549 550
3 550 551 552
3 552 553 554
3 554 555 556
3 556 557 558
3 558 559 560
3 560 561 562
3 562 563 564
3 564 565 566
3 566 567 568
3 568 569 570
3 570 571 540
3 540 542 544
3 544 546 548
3 548 550 552
3 552 554 556
3 556 558 560
3 560 562 564
3 564 566 568
3 568 570 540
3 540 544 548
3 548 552 556
3 556 560 564
3 564 568 540
3 540 548 556
3 556 564 540
4 572 573 574 575
3 576 419 572
3 542 573 418
3 577 575 536
3 541 537 574
3 578 539 420
3 540 421 538
3 579 423 424
3 571 425 422
3 580 427 428
3 570 429 426
3 581 431 432
3 569 433 430
3 582 435 436
3 568 437 434
3 583 439 440
3 567 441 438
3 584 443 444
3 566 445 442
3 585 447 448
3 565 449 446
3 586 451 452
3 564 453 450
3 587 455 456
3 563 457 454
3 588 459 460
3 562 461 458
3 589 463 464
3 561 465 462
3 590 467 468
3 560 469 466
3 591 471 472
3 559 473 470
3 592 475 476
3 558 477 474
3 593 479 480
3 557 481 478
3 594 483 484
3 556 485 482
3 595 487 488
3 555 489 486
3 596 491 492
3 554 493 490
3 597 495 496
3 553 497 494
3 598 499 500
3 552 501 498
3 599 503 504
3 551 505 502
3 600 507 508
3 550 509 506
3 601 511 512
3 549 513 510
3 602 515 516
3 548 517 514
3 603 519 520
3 547 521 518
3 604 523 524
3 546 525 522
3 605 527 528
3 545 529 526
3 606 531 532
3 544 533 530
3 607 535 416
3 543 417 534
4 572 575 577 576
4 574 573 542 541
4 419 418 573 572
4 537 536 575 574
4 536 539 578 577
4 538 537 541 540
4 421 420 539 538
4 420 423 579 578
4 422 421 540 571
4 425 424 423 422
4 424 427 580 579
4 426 425 571 570
4 429 428 427 426
4 428 431 581 580
4 430 429 570 569
4 433 432 431 430
4 432 435 582 581
4 434 433 569 568
4 437 436 435 434
4 436 439 583 582
4 438 437 568 567
4 441 440 439 438
4 440 443 584 583
4 442 441 567 566
4 445 444 443 442
4 444 447 585 584
4 446 445 566 565
4 449 448 447 446
4 448 451 586 585
4 450 449 565 564
4 453 452 451 450
4 452 455 587 586
4 454 453 564 563
4 457 456 455 454
4 456 459 588 587
4 458 457 563 562
4 461 460 459 458
4 460 463 589 588
4 462 461 562 561
4 465 464 463 462
4 464 467 590 589
4 466 465 561 560
4 469 468 467 466
4 468 471 591 590
4 470 469 560 559
4 473 472 471 470
4 472 475 592 591
4 474 473 559 558
4 477 476 475 474
4 476 479 593 592
4 478 477 558 557
4 481 480 479 478
4 480 483 594 593
4 482 481 557 556
4 485 484 483 482
4 484 487 595 594
4 486 485 556 555
4 489 488 487 486
4 488 491 596 595
4 490 489 555 554
4 493 492 491 490
4 492 495 597 596
4 494 493 554 553
4 497 496 495 494
4 496 499 598 597
4 498 497 553 552
4 501 500 499 498
4 500 503 599 598
4 502 501 552 551
4 505 504 503 502
4 504 507 600 599
4 506 505 551 550
4 509 508 507 506
4 508 511 601 600
4 510 509 550 549
4 513 512 511 510
4 512 515 602 601
4 514 513 549 548
4 517 516 515 514
4 516 519 603 602
4 518 517 548 547
4 521 520 519 518
4 520 523 604 603
4 522 521 547 546
4 525 524 523 522
4 524 527 605 604
4 526 525 546 545
4 529 528 527 526
4 528 531 606 605
4 530 529 545 544
4 533 532 531 530
4 532 535 607 606
4 534 533 544 543
4 417 416 535 534
4 416 419 576 607
4 418 417 543 542
3 607 576 577
3 577 578 579
3 579 580 581
3 581 582 583
3 583 584 585
3 585 586 587
3 587 588 589
3 589 590 591
3 591 592 593
3 593 594 595
3 595 596 597
3 597 598 599
3 599 600 601
3 601 602 603
3 603 604 605
3 605 606 607
3 607 577 579
3 579 581 583
3 583 585 587
3 587 589 591
3 591 593 595
3 595 597 599
3 599 601 603
3 603 605 607
3 607 579 583
3 583 587 591
3 591 595 599
3 599 603 607
3 607 583 591
3 591 599 607
