ply
format ascii 1.0
comment Created by Blender 2.79 (sub 0) - www.blender.org, source file: 'Money.blend'
element vertex 56
property float x
property float y
property float z
property float nx
property float ny
property float nz
property float s
property float t
element face 14
property list uchar uint vertex_indices
end_header
-1.666783 -0.966047 2.524136 -0.000000 0.000001 -1.000000 0.563644 0.278224
0.352494 -0.490839 2.524136 -0.000000 0.000001 -1.000000 0.895746 0.278224
0.726869 -2.762187 2.524134 -0.000000 0.000001 -1.000000 0.895746 0.613196
-1.338103 -2.960166 2.524135 -0.000000 0.000001 -1.000000 0.563644 0.613196
-1.666782 -0.966048 3.046793 -0.047543 -0.007837 0.998838 0.559538 0.989998
-1.338102 -2.960166 3.046791 -0.047543 -0.007837 0.998838 0.559537 0.639580
0.724798 -2.749627 3.146634 -0.047543 -0.007837 0.998838 0.907601 0.639580
0.354566 -0.503401 3.146635 -0.047543 -0.007837 0.998838 0.907601 0.989998
-1.666783 -0.966047 2.524136 -0.226342 0.973985 0.011094 0.231396 0.114836
-1.666782 -0.966048 3.046793 -0.226342 0.973985 0.011094 0.231396 0.219933
0.354566 -0.503401 3.146635 -0.226342 0.973985 0.011094 0.187615 0.219933
0.352494 -0.490839 2.524136 -0.226342 0.973985 0.011094 0.187615 0.114836
0.352494 -0.490839 2.524136 0.986687 0.162630 -0.000001 0.143833 0.114836
0.354566 -0.503401 3.146635 0.986687 0.162630 -0.000001 0.143833 0.009739
0.724798 -2.749627 3.146634 0.986687 0.162630 -0.000001 0.248930 0.009739
0.726869 -2.762187 2.524134 0.986687 0.162630 -0.000001 0.248930 0.114836
-2.155954 -3.094968 2.524135 0.211793 -0.976504 -0.039786 0.187615 0.114836
-2.155953 -3.094969 3.046791 0.211793 -0.976504 -0.039786 0.187615 0.219933
-4.177122 -3.558700 3.146634 0.211793 -0.976504 -0.039786 0.143833 0.219933
-4.184548 -3.513654 2.524135 0.211793 -0.976504 -0.039786 0.143833 0.114836
-4.547713 -1.310305 3.146635 -0.986687 -0.162630 0.000002 0.248930 0.009739
-4.540289 -1.355351 2.524136 -0.986687 -0.162630 0.000002 0.354027 0.009739
-4.184548 -3.513654 2.524135 -0.986687 -0.162630 0.000002 0.354027 0.114836
-4.177122 -3.558700 3.146634 -0.986687 -0.162630 0.000002 0.248930 0.114836
0.726869 -2.762187 2.524134 0.098213 -0.995104 0.011091 0.275178 0.219933
0.724798 -2.749627 3.146634 0.098213 -0.995104 0.011091 0.275178 0.114836
-1.338102 -2.960166 3.046791 0.098213 -0.995104 0.011091 0.318959 0.114836
-1.338103 -2.960166 2.524135 0.098213 -0.995104 0.011091 0.318959 0.219933
-1.338103 -2.960166 2.524135 0.162631 -0.986687 -0.000001 0.862387 0.012078
-1.338102 -2.960166 3.046791 0.162631 -0.986687 -0.000001 0.862387 0.217594
-2.155953 -3.094969 3.046791 0.162631 -0.986687 -0.000001 0.811008 0.217594
-2.155954 -3.094968 2.524135 0.162631 -0.986687 -0.000001 0.811008 0.012078
-4.540289 -1.355351 2.524136 -0.112801 0.992821 -0.039785 0.231396 0.219933
-4.547713 -1.310305 3.146635 -0.112801 0.992821 -0.039785 0.231396 0.114836
-2.484633 -1.100850 3.046793 -0.112801 0.992821 -0.039785 0.275178 0.114836
-2.484634 -1.100850 2.524136 -0.112801 0.992821 -0.039785 0.275178 0.219933
-2.484634 -1.100850 2.524136 -0.162631 0.986687 0.000001 0.708250 0.012078
-2.484633 -1.100850 3.046793 -0.162631 0.986687 0.000001 0.708250 0.217594
-1.666782 -0.966048 3.046793 -0.162631 0.986687 0.000001 0.656871 0.217594
-1.666783 -0.966047 2.524136 -0.162631 0.986687 0.000001 0.656871 0.012078
-4.547713 -1.310305 3.146635 0.047543 0.007836 0.998838 0.087181 0.989998
-4.177122 -3.558700 3.146634 0.047543 0.007836 0.998838 0.087181 0.639580
-2.155953 -3.094969 3.046791 0.047543 0.007836 0.998838 0.424460 0.639580
-2.484633 -1.100850 3.046793 0.047543 0.007836 0.998838 0.424460 0.989998
-2.484633 -1.100850 3.046793 0.000000 -0.000001 1.000000 0.811008 0.012078
-2.155953 -3.094969 3.046791 0.000000 -0.000001 1.000000 0.811008 0.217594
-1.338102 -2.960166 3.046791 0.000000 -0.000001 1.000000 0.759629 0.217594
-1.666782 -0.966048 3.046793 0.000000 -0.000001 1.000000 0.759629 0.012078
-4.540289 -1.355351 2.524136 -0.000000 0.000001 -1.000000 0.098540 0.278224
-2.484634 -1.100850 2.524136 -0.000000 0.000001 -1.000000 0.430641 0.278224
-2.155954 -3.094968 2.524135 -0.000000 0.000001 -1.000000 0.430641 0.613196
-4.184548 -3.513654 2.524135 -0.000000 0.000001 -1.000000 0.098540 0.613196
-2.484634 -1.100850 2.524136 -0.000000 0.000001 -1.000000 0.759629 0.217594
-1.666783 -0.966047 2.524136 -0.000000 0.000001 -1.000000 0.708250 0.217594
-1.338103 -2.960166 2.524135 -0.000000 0.000001 -1.000000 0.708250 0.012078
-2.155954 -3.094968 2.524135 -0.000000 0.000001 -1.000000 0.759629 0.012078
4 0 1 2 3
4 4 5 6 7
4 8 9 10 11
4 12 13 14 15
4 16 17 18 19
4 20 21 22 23
4 24 25 26 27
4 28 29 30 31
4 32 33 34 35
4 36 37 38 39
4 40 41 42 43
4 44 45 46 47
4 48 49 50 51
4 52 53 54 55
